<?xml version="1.0" encoding="iso-8859-1"?>
<!-- Generator: Adobe Illustrator 19.0.0, SVG Export Plug-In . SVG Version: 6.00 Build 0)  -->
<svg version="1.1" id="Capa_1" xmlns="http://www.w3.org/2000/svg" xmlns:xlink="http://www.w3.org/1999/xlink" x="0px" y="0px"
	 viewBox="0 0 512 512" style="enable-background:new 0 0 512 512;" xml:space="preserve">
<path style="fill:#787780;" d="M512,45v122c0,24.899-20.099,45-45,45H257c-24.901,0-45-20.101-45-45V45c0-24.901,20.099-45,45-45
	h210C491.901,0,512,20.099,512,45z"/>
<path style="fill:#57555C;" d="M512,45v122c0,24.899-20.099,45-45,45H362V0h105C491.901,0,512,20.099,512,45z"/>
<path style="fill:#FD003A;" d="M30,362L0,272c0-49.706,41.294-90,91-90s91,40.294,91,90v-60c0-16.569,13.431-30,30-30
	s30,13.431,30,30l-0.137,122.728C241.846,349.793,229.63,362,214.561,362c0.002,0,0,0,0,0H30"/>
<path style="fill:#E50027;" d="M214.56,362c15.07,0,27.286-12.208,27.303-27.272L242,212c0-16.569-13.431-30-30-30s-30,13.431-30,30
	v60c0-49.706-41.294-90-91-90v180H214.56z"/>
<g>
	<path style="fill:#FD3C65;" d="M30,242c-16.569,0-30,13.431-30,30v30v30c0,16.569,13.431,30,30,30h91c16.568,0,31-13.431,31-30l0,0
		c0-16.569-14.431-30-31-30H61v-30C61,255.431,46.569,242,30,242L30,242z"/>
	<path style="fill:#FD3C65;" d="M152,122c0,33.137-27.863,60-61,60s-61-26.863-61-60s27.863-60,61-60S152,88.863,152,122z"/>
</g>
<path style="fill:#FD003A;" d="M152,122c0-33.138-27.863-60-61-60v120C124.137,182,152,155.137,152,122z"/>
<path style="fill:#57555C;" d="M272,362v60H15c-8.401,0-15-6.601-15-15v-30c0-8.401,6.599-15,15-15H272z"/>
<rect x="106" y="362" style="fill:#3C3A41;" width="166" height="60"/>
<path style="fill:#1689FC;" d="M422,392c-49.501,0-90,40.499-90,90v15c0,8.401,6.599,15,15,15h150c8.401,0,15-6.599,15-15v-15
	C512,432.499,471.501,392,422,392z"/>
<path style="fill:#415BE8;" d="M512,482v15c0,8.401-6.599,15-15,15h-75V392C471.501,392,512,432.499,512,482z"/>
<path style="fill:#17ACE8;" d="M422,302c-32.999,0-60,27.001-60,60s27.001,60,60,60s60-27.001,60-60S454.999,302,422,302z"/>
<g>
	<path style="fill:#1689FC;" d="M482,362c0,32.999-27.001,60-60,60V302C454.999,302,482,329.001,482,362z"/>
	<path style="fill:#1689FC;" d="M242,392c-49.501,0-90,40.499-90,90v15c0,8.401,6.599,15,15,15h150c8.401,0,15-6.599,15-15v-15
		C332,432.499,291.501,392,242,392z"/>
</g>
<path style="fill:#415BE8;" d="M332,482v15c0,8.401-6.599,15-15,15h-75V392C291.501,392,332,432.499,332,482z"/>
<path style="fill:#17ACE8;" d="M242,302c-32.999,0-60,27.001-60,60s27.001,60,60,60s60-27.001,60-60S274.999,302,242,302z"/>
<path style="fill:#1689FC;" d="M302,362c0,32.999-27.001,60-60,60V302C274.999,302,302,329.001,302,362z"/>
<path style="fill:#CAE8F9;" d="M482,45v122c0,8.399-6.599,15-15,15H257c-8.401,0-15-6.601-15-15V45c0-8.401,6.599-15,15-15h210
	C475.401,30,482,36.599,482,45z"/>
<path style="fill:#B7E0F6;" d="M482,45v122c0,8.399-6.599,15-15,15H362V30h105C475.401,30,482,36.599,482,45z"/>
<g>
</g>
<g>
</g>
<g>
</g>
<g>
</g>
<g>
</g>
<g>
</g>
<g>
</g>
<g>
</g>
<g>
</g>
<g>
</g>
<g>
</g>
<g>
</g>
<g>
</g>
<g>
</g>
<g>
</g>
</svg>
