<?xml version="1.0" encoding="iso-8859-1"?>
<!-- Generator: Adobe Illustrator 19.0.0, SVG Export Plug-In . SVG Version: 6.00 Build 0)  -->
<svg version="1.1" id="Capa_1" xmlns="http://www.w3.org/2000/svg" xmlns:xlink="http://www.w3.org/1999/xlink" x="0px" y="0px"
	 viewBox="0 0 512.001 512.001" style="enable-background:new 0 0 512.001 512.001;" xml:space="preserve">
<path style="fill:#1689FC;" d="M256,271c-57.9,0-105,47.1-105,105v30c0,8.401,6.599,15,15,15h180c8.401,0,15-6.599,15-15v-30
	C361,318.1,313.9,271,256,271z"/>
<path style="fill:#415BE8;" d="M361,376v30c0,8.401-6.599,15-15,15h-90V271C313.9,271,361,318.1,361,376z"/>
<path style="fill:#17ACE8;" d="M256,151c-41.4,0-75,33.6-75,75s33.6,75,75,75s75-33.6,75-75S297.4,151,256,151z"/>
<path style="fill:#1689FC;" d="M331,226c0,41.4-33.6,75-75,75V151C297.4,151,331,184.6,331,226z"/>
<path style="fill:#CAE8F9;" d="M501.799,211.899l-27.1-8.699c-5.4-22.8-14.399-44.399-26.699-64.501l12.299-24.6
	c2.999-5.7,1.8-12.599-2.701-17.098L415,54.399c-4.499-4.499-11.4-5.7-17.1-2.699l-24.6,12.299C355,52.899,335.2,44.5,314.2,38.8
	L299.5,8.399C296.8,3.3,291.7,0,286,0h-60c-5.7,0-10.8,3.3-13.5,8.399L197.8,38.8c-21,5.7-40.8,14.099-59.099,25.199l-24.6-12.299
	c-5.7-3.001-12.601-1.8-17.1,2.699L54.401,97c-4.501,4.499-5.7,11.398-2.701,17.098l12.299,24.6C52.899,157,44.5,176.8,38.8,197.8
	L8.401,212.5C3.3,215.2,0,220.3,0,226v60c0,5.7,3.3,10.8,8.401,13.5L38.8,314.2c5.099,18.9,12.599,37.2,22.5,54.3l-10.501,31.199
	c-1.8,5.4-0.298,11.4,3.602,15.3L97,457.599c3.9,3.9,9.901,5.4,15.3,3.6l31.2-10.499c18.9,10.8,39,18.9,59.7,24l8.701,27.1
	c1.8,6,7.5,10.201,14.099,10.201h60c6.599,0,12.299-4.2,14.099-10.201l8.701-27.1c20.7-5.099,40.8-13.2,59.7-24l31.199,10.499
	c5.4,1.8,11.4,0.3,15.3-3.6l42.6-42.599c3.9-3.9,5.402-9.901,3.602-15.3L450.7,368.5c10.8-18.9,18.9-39,24-59.7l27.1-8.701
	c6-1.8,10.201-7.5,10.201-14.099v-60C512,219.399,507.8,213.699,501.799,211.899z M256,406c-82.8,0-150-67.2-150-150
	s67.2-150,150-150s150,67.2,150,150S338.8,406,256,406z"/>
<g>
	<path style="fill:#B7E0F6;" d="M512,226v60c0,6.599-4.2,12.299-10.201,14.099l-27.1,8.701c-5.099,20.7-13.2,40.8-24,59.7
		l10.501,31.199c1.8,5.4,0.298,11.4-3.602,15.3L415,457.599c-3.9,3.9-9.901,5.4-15.3,3.6L368.5,450.7c-18.9,10.8-39,18.9-59.7,24
		l-8.701,27.1c-1.8,6-7.5,10.201-14.099,10.201h-30V406c82.8,0,150-67.2,150-150s-67.2-150-150-150V0h30c5.7,0,10.8,3.3,13.5,8.399
		L314.2,38.8c21,5.7,40.8,14.099,59.099,25.199l24.6-12.299c5.7-3.001,12.601-1.8,17.1,2.699L457.599,97
		c4.501,4.499,5.7,11.398,2.701,17.098l-12.299,24.6c12.299,20.101,21.299,41.7,26.699,64.501l27.1,8.699
		C507.8,213.699,512,219.399,512,226z"/>
	<path style="fill:#B7E0F6;" d="M256,91c-90.901,0-165,74.099-165,165c0,90.899,74.099,165,165,165s165-74.101,165-165
		C421,165.099,346.901,91,256,91z M256,391c-74.399,0-135-60.601-135-135c0-74.401,60.601-135,135-135s135,60.599,135,135
		C391,330.399,330.399,391,256,391z"/>
</g>
<path style="fill:#A4D9F5;" d="M421,256c0,90.899-74.099,165-165,165v-30c74.399,0,135-60.601,135-135c0-74.401-60.601-135-135-135
	V91C346.901,91,421,165.099,421,256z"/>
<g>
</g>
<g>
</g>
<g>
</g>
<g>
</g>
<g>
</g>
<g>
</g>
<g>
</g>
<g>
</g>
<g>
</g>
<g>
</g>
<g>
</g>
<g>
</g>
<g>
</g>
<g>
</g>
<g>
</g>
</svg>
