<?xml version="1.0" encoding="iso-8859-1"?>
<!-- Generator: Adobe Illustrator 19.0.0, SVG Export Plug-In . SVG Version: 6.00 Build 0)  -->
<svg version="1.1" id="Capa_1" xmlns="http://www.w3.org/2000/svg" xmlns:xlink="http://www.w3.org/1999/xlink" x="0px" y="0px"
	 viewBox="0 0 512 512" style="enable-background:new 0 0 512 512;" xml:space="preserve">
<circle style="fill:#FD3C65;" cx="361.01" cy="45" r="45"/>
<g>
	<path style="fill:#FD003A;" d="M361.011,0c-0.004,0-0.007,0.002-0.011,0.002v89.996c0.004,0,0.007,0.002,0.011,0.002
		c24.853,0,45-20.147,45-45S385.864,0,361.011,0z"/>
	<path style="fill:#FD003A;" d="M421.011,90H166c-16.569,0-30,13.431-30,30c0,16.567,13.431,30,30,30h135.011
		c0,31.106,0,190.055,0,241h120V241.055c0.033,16.54,13.44,29.945,30,29.945c16.569,0,30-13.433,30-30v-30v-61
		C481.011,116.862,454.148,90,421.011,90z"/>
</g>
<path style="fill:#E50027;" d="M421.011,90H361v301h60.011V241.055c0.033,16.54,13.44,29.945,30,29.945c16.569,0,30-13.433,30-30
	v-30v-61C481.011,116.862,454.148,90,421.011,90z"/>
<path style="fill:#1689FC;" d="M406,331c-49.501,0-90,40.499-90,90v15c0,8.401,6.599,15,15,15h150c8.401,0,15-6.599,15-15v-15
	C496,371.499,455.501,331,406,331z"/>
<path style="fill:#415BE8;" d="M496,421v15c0,8.401-6.599,15-15,15h-75V331C455.501,331,496,371.499,496,421z"/>
<path style="fill:#17ACE8;" d="M406,241c-32.999,0-60,27.001-60,60s27.001,60,60,60s60-27.001,60-60S438.999,241,406,241z"/>
<g>
	<path style="fill:#1689FC;" d="M466,301c0,32.999-27.001,60-60,60V241C438.999,241,466,268.001,466,301z"/>
	<path style="fill:#1689FC;" d="M106,331c-49.501,0-90,40.499-90,90v15c0,8.401,6.599,15,15,15h150c8.401,0,15-6.599,15-15v-15
		C196,371.499,155.501,331,106,331z"/>
</g>
<path style="fill:#415BE8;" d="M196,421v15c0,8.401-6.599,15-15,15h-75V331C155.501,331,196,371.499,196,421z"/>
<path style="fill:#17ACE8;" d="M106,241c-32.999,0-60,27.001-60,60s27.001,60,60,60s60-27.001,60-60S138.999,241,106,241z"/>
<g>
	<path style="fill:#1689FC;" d="M166,301c0,32.999-27.001,60-60,60V241C138.999,241,166,268.001,166,301z"/>
	<path style="fill:#1689FC;" d="M256,331c-49.501,0-90,40.499-90,90v15c0,8.401,6.599,15,15,15h150c8.401,0,15-6.599,15-15v-15
		C346,371.499,305.501,331,256,331z"/>
</g>
<path style="fill:#415BE8;" d="M346,421v15c0,8.401-6.599,15-15,15h-75V331C305.501,331,346,371.499,346,421z"/>
<path style="fill:#17ACE8;" d="M256,241c-32.999,0-60,27.001-60,60s27.001,60,60,60s60-27.001,60-60S288.999,241,256,241z"/>
<path style="fill:#1689FC;" d="M316,301c0,32.999-27.001,60-60,60V241C288.999,241,316,268.001,316,301z"/>
<path style="fill:#57555C;" d="M496,421v76c0,8.401-6.599,15-15,15s-15-6.599-15-15v-46H46v46c0,8.401-6.599,15-15,15
	s-15-6.599-15-15v-76H496z"/>
<path style="fill:#3C3A41;" d="M496,421v76c0,8.401-6.599,15-15,15s-15-6.599-15-15v-46H256v-30H496z"/>
<g>
</g>
<g>
</g>
<g>
</g>
<g>
</g>
<g>
</g>
<g>
</g>
<g>
</g>
<g>
</g>
<g>
</g>
<g>
</g>
<g>
</g>
<g>
</g>
<g>
</g>
<g>
</g>
<g>
</g>
</svg>
